<svg width="122" height="20" viewBox="0 0 122 20" fill="none" xmlns="http://www.w3.org/2000/svg">
<path d="M9.24022 7.43265L10.5173 3.91061L11.7943 7.43265C12.1076 8.29682 12.9285 8.87233 13.8477 8.87233H17.5369L14.7301 11.019C14.0073 11.5718 13.703 12.5147 13.9661 13.3857L15.0211 16.8773L11.7063 14.7262C10.9831 14.2568 10.0515 14.2568 9.32826 14.7262L6.01338 16.8773L7.06837 13.3857C7.33155 12.5147 7.02719 11.5718 6.30444 11.019L3.49765 8.87233H7.18682C8.10604 8.87233 8.92689 8.29682 9.24022 7.43265Z" fill="#DA2535" stroke="#DA2535" stroke-width="2.36842"/>
<path d="M34.4817 7.43265L35.7587 3.91061L37.0357 7.43265C37.3491 8.29682 38.1699 8.87233 39.0891 8.87233H42.7783L39.9715 11.019C39.2488 11.5718 38.9444 12.5147 39.2076 13.3857L40.2626 16.8773L36.9477 14.7262C36.2245 14.2568 35.2929 14.2568 34.5697 14.7262L31.2548 16.8773L32.3098 13.3857C32.573 12.5147 32.2686 11.5718 31.5459 11.019L28.7391 8.87233H32.4283C33.3475 8.87233 34.1683 8.29682 34.4817 7.43265Z" fill="#DA2535" stroke="#DA2535" stroke-width="2.36842"/>
<path d="M59.7229 7.43265L60.9999 3.91061L62.277 7.43265C62.5903 8.29682 63.4111 8.87233 64.3304 8.87233H68.0195L65.2127 11.019C64.49 11.5718 64.1856 12.5147 64.4488 13.3857L65.5038 16.8773L62.1889 14.7262C61.4657 14.2568 60.5341 14.2568 59.8109 14.7262L56.496 16.8773L57.551 13.3857C57.8142 12.5147 57.5099 11.5718 56.7871 11.019L53.9803 8.87233H57.6695C58.5887 8.87233 59.4096 8.29682 59.7229 7.43265Z" fill="#DA2535" stroke="#DA2535" stroke-width="2.36842"/>
<path d="M84.9643 7.43265L86.2414 3.91061L87.5184 7.43265C87.8317 8.29682 88.6526 8.87233 89.5718 8.87233H93.261L90.4542 11.019C89.7314 11.5718 89.4271 12.5147 89.6903 13.3857L90.7453 16.8773L87.4304 14.7262C86.7072 14.2568 85.7756 14.2568 85.0524 14.7262L81.7375 16.8773L82.7925 13.3857C83.0557 12.5147 82.7513 11.5718 82.0286 11.019L79.2218 8.87233H82.9109C83.8302 8.87233 84.651 8.29682 84.9643 7.43265Z" fill="#DA2535" stroke="#DA2535" stroke-width="2.36842"/>
<path d="M110.206 7.43265L111.483 3.91061L112.76 7.43265C113.073 8.29682 113.894 8.87233 114.813 8.87233H118.502L115.696 11.019C114.973 11.5718 114.669 12.5147 114.932 13.3857L115.987 16.8773L112.672 14.7262C111.949 14.2568 111.017 14.2568 110.294 14.7262L106.979 16.8773L108.034 13.3857C108.297 12.5147 107.993 11.5718 107.27 11.019L104.463 8.87233H108.152C109.072 8.87233 109.892 8.29682 110.206 7.43265Z" fill="#DA2535" stroke="#DA2535" stroke-width="2.36842"/>
</svg>
